<svg width="710" height="152" viewBox="0 0 710 152" fill="none" xmlns="http://www.w3.org/2000/svg">
<path d="M53 0H17C7.61116 0 0 7.61116 0 17V53C0 62.3888 7.61116 70 17 70H53C62.3888 70 70 62.3888 70 53V17C70 7.61116 62.3888 0 53 0Z" fill="black"/>
<path d="M53 3C60.732 3 67 9.26801 67 17V53C67 60.732 60.732 67 53 67H17C9.26801 67 3 60.732 3 53V17C3 9.26801 9.26801 3 17 3H53ZM17 5C10.4745 5 5.16571 10.2088 5.00391 16.6953L5 17V53C5 59.5255 10.2088 64.8343 16.6953 64.9961L17 65H53C59.5255 65 64.8343 59.7912 64.9961 53.3047L65 53V17C65 10.4745 59.7912 5.16571 53.3047 5.00391L53 5H17Z" fill="#959595"/>
<path fill-rule="evenodd" clip-rule="evenodd" d="M37.9244 43L37.8791 46L32 41.9008L38 38L37.9546 41H42.1739C45.3916 41 48 38.3916 48 35.1739V34.8261C48 31.6084 45.3916 29 42.1739 29H40V27H42.1739C46.4961 27 50 30.5039 50 34.8261V35.1739C50 39.4961 46.4961 43 42.1739 43H37.9244V43Z" fill="white"/>
<path fill-rule="evenodd" clip-rule="evenodd" d="M32.0454 29H27.8261C24.6084 29 22 31.6084 22 34.8261V35.1739C22 38.3916 24.6084 41 27.8261 41H30V43H27.8261C23.5039 43 20 39.4961 20 35.1739V34.8261C20 30.5039 23.5039 27 27.8261 27H32.0756L32.1209 24L38 28.0992L32 32L32.0454 29Z" fill="white"/>
<path d="M133 0H97C87.6112 0 80 7.61116 80 17V53C80 62.3888 87.6112 70 97 70H133C142.389 70 150 62.3888 150 53V17C150 7.61116 142.389 0 133 0Z" fill="black"/>
<path d="M133 3C140.732 3 147 9.26801 147 17V53C147 60.732 140.732 67 133 67H97C89.268 67 83 60.732 83 53V17C83 9.26801 89.268 3 97 3H133ZM97 5C90.4745 5 85.1657 10.2088 85.0039 16.6953L85 17V53C85 59.5255 90.2088 64.8343 96.6953 64.9961L97 65H133C139.525 65 144.834 59.7912 144.996 53.3047L145 53V17C145 10.4745 139.791 5.16571 133.305 5.00391L133 5H97Z" fill="#0A74E0"/>
<g clip-path="url(#clip0_3604_102141)">
<rect x="102" y="20" width="2" height="6" fill="white"/>
<rect x="102" y="36" width="2" height="14" fill="white"/>
<circle cx="103" cy="31" r="3" fill="white"/>
<rect x="126" y="20" width="2" height="10" fill="white"/>
<rect x="126" y="40" width="2" height="10" fill="white"/>
<circle cx="127" cy="35" r="3" fill="white"/>
<rect x="114" y="20" width="2" height="15" fill="white"/>
<rect x="114" y="45" width="2" height="5" fill="white"/>
<circle cx="115" cy="40" r="3" fill="white"/>
</g>
<path d="M213 0H177C167.611 0 160 7.61116 160 17V53C160 62.3888 167.611 70 177 70H213C222.389 70 230 62.3888 230 53V17C230 7.61116 222.389 0 213 0Z" fill="black"/>
<path d="M213 3C220.732 3 227 9.26801 227 17V53C227 60.732 220.732 67 213 67H177C169.268 67 163 60.732 163 53V17C163 9.26801 169.268 3 177 3H213ZM177 5C170.475 5 165.166 10.2088 165.004 16.6953L165 17V53C165 59.5255 170.209 64.8343 176.695 64.9961L177 65H213C219.525 65 224.834 59.7912 224.996 53.3047L225 53V17C225 10.4745 219.791 5.16571 213.305 5.00391L213 5H177Z" fill="#3500F1"/>
<path d="M195.075 33.554L195.225 34.3225C196.466 40.6709 197.026 42.3966 198.981 42.3966C200.922 42.3966 201.481 41.0622 202.526 36.6061L202.533 36.5786C203.253 33.5054 203.752 32.3207 204.134 32.3207C204.649 32.3207 204.983 32.8445 205.608 34.716C206.53 37.4731 207.179 38.4923 209 38.4923V36.4706C208.485 36.4706 208.151 35.9467 207.526 34.0752C206.604 31.3181 205.955 30.2991 204.134 30.2991C202.18 30.2991 201.612 31.649 200.565 36.117L200.558 36.1445C199.857 39.1361 199.368 40.3271 199.003 40.3735L199.009 40.3737C199.053 40.3685 199.028 40.3408 198.94 40.2108C198.751 39.9321 198.549 39.4731 198.346 38.848C197.993 37.7578 197.706 36.4777 197.209 33.9345L197.058 33.1661C195.726 26.3507 195.051 24.3235 192.886 24.3235C191.444 24.3235 190.697 25.7329 190.002 28.4693C189.561 30.2103 189.249 31.9837 188.622 36.0061L188.579 36.278C187.978 40.1381 187.677 41.8489 187.271 43.4598C187.026 44.4297 186.78 45.1548 186.536 45.6187C186.499 45.691 186.462 45.7543 186.428 45.8086C186.376 45.7259 186.319 45.6236 186.261 45.5022C185.993 44.9445 185.727 44.0858 185.467 42.9481C185.03 41.0327 184.673 38.7278 184.134 34.6459C184.098 34.3676 183.869 32.6234 183.803 32.1236C182.924 25.4843 182.427 22.9861 181.4 22L180 23.4579C180.491 23.9295 181.053 26.7553 181.799 32.3891C181.865 32.8872 182.093 34.6305 182.13 34.9102C183.47 45.0698 184.139 48 186.425 48C187.838 48 188.556 46.6309 189.231 43.9542C189.659 42.2589 189.965 40.518 190.577 36.5893L190.619 36.3174C191.235 32.3647 191.542 30.6217 191.962 28.9666C192.215 27.9669 192.472 27.2185 192.727 26.7382C192.817 26.5676 192.901 26.4436 192.969 26.368C193.437 26.6179 194.172 28.9338 195.075 33.554Z" fill="white"/>
<path d="M293 0H257C247.611 0 240 7.61116 240 17V53C240 62.3888 247.611 70 257 70H293C302.389 70 310 62.3888 310 53V17C310 7.61116 302.389 0 293 0Z" fill="black"/>
<path fill-rule="evenodd" clip-rule="evenodd" d="M307 17C307 9.26801 300.732 3 293 3H257C249.268 3 243 9.26801 243 17V53C243 60.732 249.268 67 257 67H293C300.732 67 307 60.732 307 53V17ZM257 5H293L293.305 5.0038C299.791 5.16561 305 10.4745 305 17V53L304.996 53.305C304.834 59.7915 299.525 65 293 65H257L256.695 64.9962C250.209 64.8344 245 59.5255 245 53V17L245.004 16.695C245.166 10.2085 250.475 5 257 5Z" fill="#87DAFF"/>
<path d="M259 30H281.099L290 45" stroke="white" stroke-width="2"/>
<path d="M373 0H337C327.611 0 320 7.61116 320 17V53C320 62.3888 327.611 70 337 70H373C382.389 70 390 62.3888 390 53V17C390 7.61116 382.389 0 373 0Z" fill="black"/>
<path fill-rule="evenodd" clip-rule="evenodd" d="M387 17C387 9.26801 380.732 3 373 3H337C329.268 3 323 9.26801 323 17V53C323 60.732 329.268 67 337 67H373C380.732 67 387 60.732 387 53V17ZM337 5H373L373.305 5.0038C379.791 5.16561 385 10.4745 385 17V53L384.996 53.305C384.834 59.7915 379.525 65 373 65H337L336.695 64.9962C330.209 64.8344 325 59.5255 325 53V17L325.004 16.695C325.166 10.2085 330.475 5 337 5Z" fill="#FF2727"/>
<circle cx="347" cy="32" r="7" stroke="white" stroke-width="2"/>
<circle cx="363" cy="32" r="7" stroke="white" stroke-width="2"/>
<path d="M360.036 34.8662L358.304 35.8662L357.304 34.1338L359.036 33.1338L360.036 34.8662ZM368.696 34.1338L367.696 35.8662L365.964 34.8662L366.964 33.1338L368.696 34.1338ZM363 30C364.105 30.0001 365 30.8955 365 32C365 33.1045 364.105 33.9999 363 34C361.895 34 361 33.1046 361 32C361 30.8954 361.895 30 363 30ZM364 28H362V26H364V28Z" fill="white"/>
<path d="M361.041 44.4331C361.014 44.6184 361 44.808 361 45.0005C361 45.5055 361.095 45.9882 361.265 46.4331H348.735C348.906 45.9883 349 45.5054 349 45.0005C349 44.8079 348.985 44.6184 348.959 44.4331H361.041ZM370.382 35.0933L367.704 42.0532C367.209 41.5991 366.6 41.2688 365.925 41.1089L369.566 31.6411L370.382 35.0933ZM344.074 41.1089C343.399 41.269 342.789 41.5991 342.295 42.0532L339.596 35.0366L340.433 31.6411L344.074 41.1089Z" fill="white"/>
<path d="M347 45C347 46.1046 346.105 47 345 47C343.895 47 343 46.1046 343 45C343 43.8954 343.895 43 345 43C346.105 43 347 43.8954 347 45Z" fill="white"/>
<path d="M367 45C367 46.1046 366.105 47 365 47C363.895 47 363 46.1046 363 45C363 43.8954 363.895 43 365 43C366.105 43 367 43.8954 367 45Z" fill="white"/>
<path d="M348 38H346V36H348V38ZM347 30C348.105 30.0001 349 30.8955 349 32C349 33.1044 348.104 33.9999 347 34C345.895 34 345 33.1045 345 32C345 30.8954 345.895 30 347 30ZM344.036 29.1338L343.036 30.8662L341.304 29.8662L342.304 28.1338L344.036 29.1338ZM352.696 29.8662L350.964 30.8662L349.964 29.1338L351.696 28.1338L352.696 29.8662Z" fill="white"/>
<path d="M453 0H417C407.611 0 400 7.61116 400 17V53C400 62.3888 407.611 70 417 70H453C462.389 70 470 62.3888 470 53V17C470 7.61116 462.389 0 453 0Z" fill="black"/>
<path d="M453 3C460.732 3 467 9.26801 467 17V53C467 60.732 460.732 67 453 67H417C409.268 67 403 60.732 403 53V17C403 9.26801 409.268 3 417 3H453ZM417 5C410.475 5 405.166 10.2088 405.004 16.6953L405 17V53C405 59.5255 410.209 64.8343 416.695 64.9961L417 65H453C459.525 65 464.834 59.7912 464.996 53.3047L465 53V17C465 10.4745 459.791 5.16571 453.305 5.00391L453 5H417Z" fill="#FF7000"/>
<path d="M421 35L425 23H431L439 47H445L449 35" stroke="white" stroke-width="2"/>
<path d="M533 0H497C487.611 0 480 7.61116 480 17V53C480 62.3888 487.611 70 497 70H533C542.389 70 550 62.3888 550 53V17C550 7.61116 542.389 0 533 0Z" fill="black"/>
<path fill-rule="evenodd" clip-rule="evenodd" d="M547 17C547 9.26801 540.732 3 533 3H497C489.268 3 483 9.26801 483 17V53C483 60.732 489.268 67 497 67H533C540.732 67 547 60.732 547 53V17ZM497 5H533L533.305 5.0038C539.791 5.16561 545 10.4745 545 17V53L544.996 53.305C544.834 59.7915 539.525 65 533 65H497L496.695 64.9962C490.209 64.8344 485 59.5255 485 53V17L485.004 16.695C485.166 10.2085 490.475 5 497 5Z" fill="#FF2727"/>
<path d="M528 26C529.105 26 530 26.8954 530 28V42C530 43.1046 529.105 44 528 44H502C500.895 44 500 43.1046 500 42V28C500 26.8954 500.895 26 502 26H528ZM502 38V42H528V38H502ZM502 36H528V28H502V36Z" fill="white"/>
<path d="M53 82H17C7.61116 82 0 89.6112 0 99V135C0 144.389 7.61116 152 17 152H53C62.3888 152 70 144.389 70 135V99C70 89.6112 62.3888 82 53 82Z" fill="black"/>
<path d="M53 85C60.732 85 67 91.268 67 99V135C67 142.732 60.732 149 53 149H17C9.26801 149 3 142.732 3 135V99C3 91.268 9.26801 85 17 85H53ZM17 87C10.4745 87 5.16571 92.2088 5.00391 98.6953L5 99V135C5 141.525 10.2088 146.834 16.6953 146.996L17 147H53C59.5255 147 64.8343 141.791 64.9961 135.305L65 135V99C65 92.4745 59.7912 87.1657 53.3047 87.0039L53 87H17Z" fill="#FFD236"/>
<path d="M22 116H36.6006L35.5332 118H22V130H20V104H22V116ZM50 116V118H38.8701L40.1855 116H50Z" fill="#959595"/>
<path d="M22 129C36 129 36 105 50 105" stroke="white" stroke-width="2"/>
<path d="M133 82H97C87.6112 82 80 89.6112 80 99V135C80 144.389 87.6112 152 97 152H133C142.389 152 150 144.389 150 135V99C150 89.6112 142.389 82 133 82Z" fill="black"/>
<path fill-rule="evenodd" clip-rule="evenodd" d="M147 99C147 91.268 140.732 85 133 85H97C89.268 85 83 91.268 83 99V135C83 142.732 89.268 149 97 149H133C140.732 149 147 142.732 147 135V99ZM97 87H133L133.305 87.0038C139.791 87.1656 145 92.4745 145 99V135L144.996 135.305C144.834 141.791 139.525 147 133 147H97L96.695 146.996C90.2085 146.834 85 141.525 85 135V99L85.0038 98.695C85.1656 92.2085 90.4745 87 97 87Z" fill="#6954FF"/>
<path fill-rule="evenodd" clip-rule="evenodd" d="M115 121C117.209 121 119 119.209 119 117C119 114.791 117.209 113 115 113C112.791 113 111 114.791 111 117C111 119.209 112.791 121 115 121Z" fill="white"/>
<path d="M115 104C122.18 104 128 109.82 128 117C128 124.18 122.18 130 115 130C107.82 130 102 124.18 102 117C102 109.82 107.82 104 115 104ZM115 106C108.925 106 104 110.925 104 117C104 123.075 108.925 128 115 128C121.075 128 126 123.075 126 117C126 110.925 121.075 106 115 106Z" fill="white"/>
<circle cx="102" cy="104" r="2" fill="#959595"/>
<circle cx="128" cy="104" r="2" fill="#959595"/>
<circle cx="128" cy="130" r="2" fill="#959595"/>
<circle cx="102" cy="130" r="2" fill="#959595"/>
<path d="M213 82H177C167.611 82 160 89.6112 160 99V135C160 144.389 167.611 152 177 152H213C222.389 152 230 144.389 230 135V99C230 89.6112 222.389 82 213 82Z" fill="black"/>
<path fill-rule="evenodd" clip-rule="evenodd" d="M227 99C227 91.268 220.732 85 213 85H177C169.268 85 163 91.268 163 99V135C163 142.732 169.268 149 177 149H213C220.732 149 227 142.732 227 135V99ZM177 87H213L213.305 87.0038C219.791 87.1656 225 92.4745 225 99V135L224.996 135.305C224.834 141.791 219.525 147 213 147H177L176.695 146.996C170.209 146.834 165 141.525 165 135V99L165.004 98.695C165.166 92.2085 170.475 87 177 87Z" fill="#6954FF"/>
<rect x="182" y="103" width="2" height="16" fill="white"/>
<rect x="186" y="110" width="2" height="9" fill="white"/>
<rect x="190" y="119" width="2" height="7" fill="white"/>
<rect x="194" y="119" width="2" height="12" fill="white"/>
<rect x="198" y="119" width="2" height="4" fill="white"/>
<rect x="202" y="111" width="2" height="8" fill="white"/>
<rect x="206" y="115" width="2" height="4" fill="white"/>
<path d="M293 82H257C247.611 82 240 89.6112 240 99V135C240 144.389 247.611 152 257 152H293C302.389 152 310 144.389 310 135V99C310 89.6112 302.389 82 293 82Z" fill="black"/>
<path d="M293 85C300.732 85 307 91.268 307 99V135C307 142.732 300.732 149 293 149H257C249.268 149 243 142.732 243 135V99C243 91.268 249.268 85 257 85H293ZM257 87C250.475 87 245.166 92.2088 245.004 98.6953L245 99V135C245 141.525 250.209 146.834 256.695 146.996L257 147H293C299.525 147 304.834 141.791 304.996 135.305L305 135V99C305 92.4745 299.791 87.1657 293.305 87.0039L293 87H257Z" fill="#00FFDD"/>
<path d="M262 131.615L271.454 121L289 121.037" stroke="#959595" stroke-width="2"/>
<path d="M271.347 121.563V104" stroke="#959595" stroke-width="2"/>
<path d="M289 104L279.912 112.895L262 113" stroke="white" stroke-width="2"/>
<path d="M279.5 113V131" stroke="white" stroke-width="2"/>
<path fill-rule="evenodd" clip-rule="evenodd" d="M290 120.5V103H271.407L262 112.716V131H280.01L290 120.5Z" stroke="white" stroke-width="2"/>
<path d="M373 82H337C327.611 82 320 89.6112 320 99V135C320 144.389 327.611 152 337 152H373C382.389 152 390 144.389 390 135V99C390 89.6112 382.389 82 373 82Z" fill="black"/>
<path d="M373 85C380.732 85 387 91.268 387 99V135C387 142.732 380.732 149 373 149H337C329.268 149 323 142.732 323 135V99C323 91.268 329.268 85 337 85H373ZM337 87C330.475 87 325.166 92.2088 325.004 98.6953L325 99V135C325 141.525 330.209 146.834 336.695 146.996L337 147H373C379.525 147 384.834 141.791 384.996 135.305L385 135V99C385 92.4745 379.791 87.1657 373.305 87.0039L373 87H337Z" fill="#959595"/>
<path d="M361.517 130H348.483L347.106 106H350.014V104H345L346.606 132H363.394L365 104H359.778V106H362.894L361.517 130Z" fill="#959595"/>
<path d="M360.103 128H349.897L349 102H361L360.103 128ZM351.771 126H358.229L359 104H351L351.771 126Z" fill="white"/>
<path d="M453 82H417C407.611 82 400 89.6112 400 99V135C400 144.389 407.611 152 417 152H453C462.389 152 470 144.389 470 135V99C470 89.6112 462.389 82 453 82Z" fill="black"/>
<path d="M453 85C460.732 85 467 91.268 467 99V135C467 142.732 460.732 149 453 149H417C409.268 149 403 142.732 403 135V99C403 91.268 409.268 85 417 85H453ZM417 87C410.475 87 405.166 92.2088 405.004 98.6953L405 99V135C405 141.525 410.209 146.834 416.695 146.996L417 147H453C459.525 147 464.834 141.791 464.996 135.305L465 135V99C465 92.4745 459.791 87.1657 453.305 87.0039L453 87H417Z" fill="#959595"/>
<path d="M428.075 127.051L428.595 129.048L430.46 128.643L439.453 108.921C439.897 107.941 439.551 106.544 438.554 105.985C437.603 105.452 436.424 105.628 435.723 106.407L430.18 112.647L430.399 115.534L437.315 107.785C437.375 107.719 437.479 107.703 437.563 107.75C437.521 107.727 437.577 107.953 437.539 108.037L428.956 126.86L428.075 127.051Z" fill="#959595"/>
<path d="M435.389 118.905L445.786 114.88C445.8 114.876 445.87 114.905 445.9 114.965C445.93 115.026 445.909 115.1 445.852 115.138L427.048 128.417L428.175 130.015L446.96 116.748C447.829 116.169 448.146 115.024 447.684 114.084C447.221 113.143 446.121 112.699 445.112 113.045L436.701 116.142L435.389 118.905Z" fill="#959595"/>
<path d="M436.676 125.63L446.895 128.289C446.958 128.31 447.025 128.429 447.004 128.55C446.981 128.679 446.872 128.769 446.751 128.76L426 128.855L426.009 131L446.682 130.901C447.736 130.989 448.751 130.149 448.961 128.948C449.172 127.744 448.501 126.563 447.409 126.217C441.117 124.579 442.813 125.034 438.839 124L436.676 125.63Z" fill="#959595"/>
<path d="M426 104C426.602 104 427.103 104.466 427.146 105.066L428.718 127.081C428.83 128.658 427.581 130 426 130C424.419 130 423.17 128.658 423.282 127.081L424.854 105.066C424.897 104.466 425.398 104 426 104Z" stroke="white" stroke-width="2"/>
<circle cx="426" cy="127" r="3" fill="white"/>
<rect x="484" y="86" width="62" height="62" rx="13" fill="black"/>
<rect x="484" y="86" width="62" height="62" rx="13" stroke="#FF02C2" stroke-width="2"/>
<rect x="484" y="86" width="62" height="62" rx="13" stroke="black" stroke-width="2"/>
<path d="M533 82H497C487.611 82 480 89.6112 480 99V135C480 144.389 487.611 152 497 152H533C542.389 152 550 144.389 550 135V99C550 89.6112 542.389 82 533 82Z" fill="black"/>
<path d="M533 85C540.732 85 547 91.268 547 99V135C547 142.732 540.732 149 533 149H497C489.268 149 483 142.732 483 135V99C483 91.268 489.268 85 497 85H533ZM497 87C490.475 87 485.166 92.2088 485.004 98.6953L485 99V135C485 141.525 490.209 146.834 496.695 146.996L497 147H533C539.525 147 544.834 141.791 544.996 135.305L545 135V99C545 92.4745 539.791 87.1657 533.305 87.0039L533 87H497Z" fill="#E44A5D"/>
<path d="M504 124C504 124.552 504.448 125 505 125H506V131H503C501.895 131 501 130.105 501 129V111H504V124ZM512 124C512 124.552 512.448 125 513 125H514V131H508V125H509C509.552 125 510 124.552 510 124V111H512V124ZM520 124C520 124.552 520.448 125 521 125H522V131H516V125H517C517.552 125 518 124.552 518 124V111H520V124ZM529 129C529 130.105 528.105 131 527 131H524V125H525C525.552 125 526 124.552 526 124V111H529V129ZM527 103C528.105 103 529 103.895 529 105V109H501V105C501 103.895 501.895 103 503 103H527ZM504 105C503.448 105 503 105.448 503 106C503 106.552 503.448 107 504 107C504.552 107 505 106.552 505 106C505 105.448 504.552 105 504 105ZM508 105C507.448 105 507 105.448 507 106C507 106.552 507.448 107 508 107C508.552 107 509 106.552 509 106C509 105.448 508.552 105 508 105ZM518 105C517.448 105 517 105.448 517 106C517 106.552 517.448 107 518 107H526C526.552 107 527 106.552 527 106C527 105.448 526.552 105 526 105H518Z" fill="white"/>
<path d="M613 0H577C567.611 0 560 7.61116 560 17V53C560 62.3888 567.611 70 577 70H613C622.389 70 630 62.3888 630 53V17C630 7.61116 622.389 0 613 0Z" fill="black"/>
<path d="M613 3C620.732 3 627 9.26801 627 17V53C627 60.732 620.732 67 613 67H577C569.268 67 563 60.732 563 53V17C563 9.26801 569.268 3 577 3H613ZM577 5C570.475 5 565.166 10.2088 565.004 16.6953L565 17V53C565 59.5255 570.209 64.8343 576.695 64.9961L577 65H613C619.525 65 624.834 59.7912 624.996 53.3047L625 53V17C625 10.4745 619.791 5.16571 613.305 5.00391L613 5H577Z" fill="#FF7000"/>
<rect x="603" y="21" width="2" height="28" fill="#616161"/>
<rect x="594" y="21" width="4" height="2" fill="#616161"/>
<rect x="586" y="21" width="4" height="2" fill="#616161"/>
<rect x="579" y="47" width="4" height="2" fill="white"/>
<rect x="583" y="21" width="3" height="2" fill="white"/>
<rect x="603" y="21" width="4" height="2" fill="white"/>
<rect x="582" y="31" width="4" height="2" fill="white"/>
<rect x="588" y="21" width="2" height="28" fill="white"/>
<rect x="581" y="21" width="2" height="28" fill="white"/>
<rect x="599" y="21" width="2" height="28" fill="white"/>
<rect x="597" y="21" width="4" height="2" fill="white"/>
<rect x="607" y="21" width="2" height="28" fill="white"/>
<rect x="593" y="21" width="2" height="28" fill="white"/>
<rect x="607" y="47" width="4" height="2" fill="white"/>
<path d="M600 47H605V49H600V47Z" fill="white"/>
<rect x="590" y="47" width="5" height="2" fill="white"/>
<rect opacity="0.5" x="568" y="8" width="54" height="54" rx="9" stroke="#FF7000" stroke-width="2"/>
<circle cx="570" cy="60" r="12" fill="black"/>
<path d="M570 70C567.903 70 565.957 69.3532 564.35 68.25H570V70ZM570 66H561.999C561.483 65.3135 561.056 64.5574 560.729 63.75H570V66ZM570 61.5H560.112C560.039 61.0107 560 60.5098 560 60C560 59.7476 560.013 59.4977 560.031 59.25H570V61.5ZM570 57H560.459C560.71 56.2019 561.059 55.4479 561.49 54.75H570V57ZM570 52.5H563.39C564.62 51.4152 566.117 50.6267 567.771 50.25H570V52.5Z" fill="#525252"/>
<path d="M570 66H578.001C577.346 66.872 576.551 67.6321 575.65 68.25H570V66ZM570 61.5H579.888C579.77 62.2838 579.559 63.0369 579.271 63.75H570V61.5ZM570 57H579.542C579.768 57.7184 579.911 58.4719 579.969 59.25H570V57ZM570 52.5H576.611C577.35 53.1513 577.992 53.9086 578.512 54.75H570V52.5Z" fill="white"/>
<path d="M613 82H577C567.611 82 560 89.6112 560 99V135C560 144.389 567.611 152 577 152H613C622.389 152 630 144.389 630 135V99C630 89.6112 622.389 82 613 82Z" fill="black"/>
<path d="M613 85C620.732 85 627 91.268 627 99V135C627 142.732 620.732 149 613 149H577C569.268 149 563 142.732 563 135V99C563 91.268 569.268 85 577 85H613ZM577 87C570.475 87 565.166 92.2088 565.004 98.6953L565 99V135C565 141.525 570.209 146.834 576.695 146.996L577 147H613C619.525 147 624.834 141.791 624.996 135.305L625 135V99C625 92.4745 619.791 87.1657 613.305 87.0039L613 87H577Z" fill="#87DAFF"/>
<path d="M596.017 106.585L599.31 103.293L600.724 104.707L596.017 109.414V112.564L598.314 113.841L601.526 111.987L603.248 105.558L605.18 106.075L603.975 110.573L607.334 108.634L608.334 110.366L604.975 112.306L609.473 113.511L608.955 115.442L602.526 113.72L599.5 115.466V118.533L602.526 120.28L608.955 118.558L609.473 120.489L604.975 121.694L608.334 123.634L607.334 125.366L603.975 123.427L605.18 127.925L603.248 128.442L601.526 122.013L598.314 120.158L596.017 121.435V125.293L600.724 130L599.31 131.414L596.017 128.121V132H594.017V128.121L590.724 131.414L589.31 130L594.017 125.293V121.453L591.526 120.069L588.774 121.659L587.051 128.089L585.119 127.571L586.323 123.073L582.353 125.366L581.353 123.634L585.323 121.342L580.826 120.136L581.344 118.204L587.774 119.927L590.5 118.353V115.646L587.774 114.073L581.344 115.796L580.826 113.864L585.324 112.658L581.354 110.366L582.354 108.634L586.324 110.927L585.119 106.429L587.051 105.911L588.774 112.341L591.526 113.93L594.017 112.546V109.414L589.31 104.707L590.724 103.293L594.017 106.585V102H596.017V106.585ZM592.5 115.576V118.324L595.001 119.7L597.5 118.324V115.576L595.001 114.2L592.5 115.576Z" fill="white"/>
<path d="M693 0H657C647.611 0 640 7.61116 640 17V53C640 62.3888 647.611 70 657 70H693C702.389 70 710 62.3888 710 53V17C710 7.61116 702.389 0 693 0Z" fill="black"/>
<path d="M693 3C700.732 3 707 9.26801 707 17V53C707 60.732 700.732 67 693 67H657C649.268 67 643 60.732 643 53V17C643 9.26801 649.268 3 657 3H693ZM657 5C650.475 5 645.166 10.2088 645.004 16.6953L645 17V53C645 59.5255 650.209 64.8343 656.695 64.9961L657 65H693C699.525 65 704.834 59.7912 704.996 53.3047L705 53V17C705 10.4745 699.791 5.16571 693.305 5.00391L693 5H657Z" fill="#959595"/>
<path d="M675 49H667.25C665.81 48.2011 664.506 47.1868 663.382 46H675V49ZM675 43H661.142C660.596 42.0566 660.144 41.0525 659.798 40H675V43ZM675 37H659.125C659.043 36.3448 659 35.6774 659 35C659 34.6641 659.012 34.3307 659.032 34H675V37ZM675 31H659.505C659.774 29.9547 660.147 28.9512 660.61 28H675V31ZM675 25H662.511C663.423 23.8623 664.487 22.8522 665.673 22H675V25Z" fill="#525252"/>
<path d="M675 49H682.75C680.454 50.2738 677.812 51 675 51V49ZM675 43H688.858C688.229 44.0874 687.476 45.0939 686.618 46H675V43ZM675 37H690.875C690.746 38.0339 690.519 39.0371 690.202 40H675V37ZM675 31H690.496C690.745 31.9676 690.904 32.9707 690.968 34H675V31ZM675 25H687.489C688.228 25.922 688.868 26.9272 689.391 28H675V25ZM675 19C678.481 19 681.701 20.1126 684.327 22H675V19Z" fill="white"/>
<path d="M693 82H657C647.611 82 640 89.6112 640 99V135C640 144.389 647.611 152 657 152H693C702.389 152 710 144.389 710 135V99C710 89.6112 702.389 82 693 82Z" fill="black"/>
<path d="M693 85C700.732 85 707 91.268 707 99V135C707 142.732 700.732 149 693 149H657C649.268 149 643 142.732 643 135V99C643 91.268 649.268 85 657 85H693ZM657 87C650.475 87 645.166 92.2088 645.004 98.6953L645 99V135C645 141.525 650.209 146.834 656.695 146.996L657 147H693C699.525 147 704.834 141.791 704.996 135.305L705 135V99C705 92.4745 699.791 87.1657 693.305 87.0039L693 87H657Z" fill="#959595"/>
<path d="M675 103C677.795 103 680.823 104.185 683.151 106.135C685.478 108.083 687 110.699 687 113.5C687 117.821 684.49 122.217 681.577 125.604C680.135 127.282 678.63 128.669 677.366 129.628C676.733 130.108 676.176 130.468 675.73 130.704C675.508 130.822 675.326 130.901 675.188 130.949C675.039 131 674.984 131 675 131C675.016 131 674.961 131 674.812 130.949C674.674 130.901 674.492 130.822 674.27 130.704C673.824 130.468 673.267 130.108 672.634 129.628C671.37 128.669 669.865 127.282 668.423 125.604C665.51 122.217 663 117.821 663 113.5C663 110.699 664.522 108.083 666.849 106.135C669.177 104.185 672.205 103 675 103Z" stroke="white" stroke-width="2"/>
<path d="M674.1 123C674.1 123 670.407 123.095 668.17 120.61C665.934 118.125 666 114 666 114C666 114 669.693 113.905 671.93 116.39C674.166 118.875 674.1 123 674.1 123Z" fill="white"/>
<path d="M675.9 123C675.9 123 679.593 123.095 681.83 120.61C684.066 118.125 684 114 684 114C684 114 680.307 113.905 678.07 116.39C675.834 118.875 675.9 123 675.9 123Z" fill="white"/>
<defs>
<clipPath id="clip0_3604_102141">
<rect width="30" height="30" fill="white" transform="translate(100 20)"/>
</clipPath>
</defs>
</svg>

